# AST/ASF file generated using VICON BodyLanguage
# -----------------------------------------------
:version 1.10
:name VICON
:units
  mass 1.0
  length 0.45
  angle deg
:documentation
   .ast/.asf automatically generated from VICON data using
   VICON BodyBuilder and BodyLanguage model FoxedUp or BRILLIANT.MOD
:root
   order TX TY TZ RX RY RZ
   axis XYZ
   position 0 0 0  
   orientation 0 0 0 
:bonedata
  begin
     id 1 
     name lhipjoint
     direction 0.662698 -0.695252 0.27831 
     length 2.53073 
     axis 0 0 0  XYZ
  end
  begin
     id 2 
     name lfemur
     direction 0.34202 -0.939693 0  
     length 7.16147  
     axis 0 0 20  XYZ
    dof rx ry rz
    limits (-160.0 20.0)
           (-70.0 70.0)
           (-60.0 70.0)
  end
  begin
     id 3 
     name ltibia
     direction 0.34202 -0.939693 0   
     length 7.63967   
     axis 0 0 20   XYZ
    dof rx
    limits (-10.0 170.0)
  end
  begin
     id 4 
     name lfoot
     direction 0.0938457 -0.257721 0.961651   
     length 1.89793   
     axis -90 7.62852e-016 20   XYZ
    dof rx rz
    limits (-45.0 90.0)
           (-70.0 20.0)
  end
  begin
     id 5 
     name ltoes
     direction -0.00116841 -0.0030592 0.999995   
     length 0.955649   
     axis -90 7.62852e-016 20   XYZ
    dof rx
    limits (-90.0 20.0)
  end
  begin
     id 6 
     name rhipjoint
     direction -0.649445 -0.705948 0.282592   
     length 2.49238  
     axis 0 0 0  XYZ 
  end
  begin
     id 7 
     name rfemur
     direction -0.34202 -0.939693 0   
     length 6.90728   
     axis 0 0 -20   XYZ
    dof rx ry rz
    limits (-160.0 20.0)
           (-70.0 70.0)
           (-70.0 60.0)
  end
  begin
     id 8 
     name rtibia
     direction -0.34202 -0.939693 0   
     length 7.72868   
     axis 0 0 -20   XYZ
    dof rx
    limits (-10.0 170.0)
 end
 begin
     id 9 
     name rfoot
     direction -0.0920068 -0.252865 0.963117   
     length 1.97476  
     axis -90 -7.62852e-016 -20   XYZ
    dof rx rz
    limits (-45.0 90.0)
           (-20.0 70.0)
  end
  begin
     id 10 
     name rtoes
     direction 0.000391322 0.00230649 0.999997   
     length 0.992641   
     axis -90 -7.62852e-016 -20   XYZ
    dof rx
    limits (-90.0 20.0)
  end
  begin
     id 11 
     name lowerback
     direction -0.00875327 0.998321 -0.0572635   
     length 2.20024   
     axis 0 0 0   XYZ
    dof rx ry rz
    limits (-20.0 45.0)
           (-30.0 30.0)
           (-30.0 30.0)
  end
  begin
     id 12 
     name upperback
     direction 0.00753931 0.999972 -0.000360425   
     length 2.20538   
     axis 0 0 0   XYZ
    dof rx ry rz
    limits (-20.0 45.0)
           (-30.0 30.0)
           (-30.0 30.0)
  end
  begin
     id 13 
     name thorax
     direction 0.0117767 0.999601 0.0256663   
     length 2.21508   
     axis 0 0 0   XYZ
    dof rx ry rz
    limits (-20.0 45.0)
           (-30.0 30.0)
           (-30.0 30.0)
  end
  begin
     id 14 
     name lowerneck
     direction 0.060228 0.994909 0.0807986   
     length 1.7607   
     axis 0 0 0   XYZ
    dof rx ry rz
    limits (-20.0 45.0)
           (-30.0 30.0)
           (-30.0 30.0)
  end
  begin
     id 15 
     name upperneck
     direction -0.0563647 0.959594 -0.275685   
     length 1.75612   
     axis 0 0 0   XYZ
    dof rx ry rz
    limits (-20.0 45.0)
           (-30.0 30.0)
           (-30.0 30.0)
  end
  begin
     id 16
     name head
     direction -0.0161544 0.99458 -0.102714  
     length 1.79288  
     axis 0 0 0   XYZ
    dof rx ry rz
    limits (-20.0 45.0)
           (-30.0 30.0)
           (-30.0 30.0)
  end
  begin
     id 17 
     name lclavicle
     direction 0.93913 0.332189 -0.087669  
     length 3.52087  
     axis 0 0 0   XYZ
    dof ry rz
    limits (-20.0 10.0)
           (0.0 20.0)
  end
  begin
     id 18 
     name lhumerus
     direction 1 -4.48974e-011 -2.70836e-027   
     length 5.35289   
     axis -180 -30 -90   XYZ
    dof rx ry rz
    limits (-60.0 90.0)
           (-90.0 90.0)
           (-90.0 90.0)
  end
  begin
     id 19
     name lradius
     direction 1 -4.48961e-011 -9.76021e-027   
     length 3.27727   
     axis -180 -30 -90   XYZ
    dof rx
    limits (-10.0 170.0)
  end
  begin
     id 20
     name lwrist
     direction 1 -4.49103e-011 -2.23668e-026   
     length 1.63864   
     axis 1.44924e-014 90 90   XYZ
    dof ry
    limits (-180.0 0.0)
 end
  begin
     id 21 
     name lhand
     direction 1 3.0697e-005 0.000161777   
     length 0.54443   
     axis 2.85318e-014 90 90   XYZ
    dof rx rz
    limits (-90.0 90.0)
           (-45.0 45.0)
  end
  begin
     id 22 
     name lfingers
     direction 1 -4.49027e-011 -8.9447e-026   
     length 0.438912   
     axis 5.70628e-014 90 90   XYZ
    dof rx
    limits (0.0 90.0)
  end
  begin
     id 23
     name lthumb
     direction 0.707058 2.6516e-005 0.707156   
     length 0.630274   
     axis -90 45 -3.53137e-014   XYZ
    dof rx rz
    limits (-45.0 45.0)
           (-45.0 45.0)
  end
  begin
     id 24 
     name rclavicle
     direction -0.95274 0.284984 -0.105215   
     length 3.43401  
     axis 0 0 0   XYZ 
    dof ry rz
    limits (-10.0 20.0)
           (-20.0 0.0)
  end
  begin
     id 25 
     name rhumerus
     direction -0.999999 -0.000575019 -0.00106829  
     length 5.52077   
     axis -180 30 90   XYZ
    dof rx ry rz
    limits (-90.0 60.0)
           (-90.0 90.0)
           (-90.0 90.0)
  end
  begin
     id 26 
     name rradius
     direction -1 -4.4879e-011 -6.35415e-027   
     length 3.32364   
     axis -180 30 90   XYZ
    dof rx
    limits (-10.0 170.0)
  end
  begin
     id 27 
     name rwrist
     direction -1 -4.49048e-011 -9.98542e-027   
     length 1.66182   
     axis 6.32482e-015 -90 -90   XYZ
    dof ry
    limits (-180.0 0.0)
  end
  begin
     id 28
     name rhand
     direction -1 -4.48978e-011 -1.99771e-026   
     length 0.732235   
     axis 1.27479e-014 -90 -90   XYZ
    dof rx rz
    limits (-90.0 90.0)
           (-45.0 45.0)
  end
  begin
     id 29
     name rfingers
     direction -1 -4.49144e-011 -3.99245e-026   
     length 0.590347   
     axis 2.5496e-014 -90 -90   XYZ
    dof rx
    limits (0.0 90.0)
  end
  begin
     id 30
     name rthumb
     direction -0.707107 -6.35121e-011 0.707107   
     length 0.847624   
     axis -90 -45 -2.82974e-014   XYZ
    dof rx rz
    limits (-45.0 45.0)
           (-45.0 45.0)
  end
:hierarchy
  begin
    root lhipjoint rhipjoint lowerback
    lhipjoint lfemur
    lfemur ltibia
    ltibia lfoot
    lfoot ltoes
    rhipjoint rfemur
    rfemur rtibia
    rtibia rfoot
    rfoot rtoes
    lowerback upperback
    upperback thorax
    thorax lowerneck lclavicle rclavicle
    lowerneck upperneck
    upperneck head
    lclavicle lhumerus
    lhumerus lradius
    lradius lwrist
    lwrist lhand lthumb
    lhand lfingers
    rclavicle rhumerus
    rhumerus rradius
    rradius rwrist
    rwrist rhand rthumb
    rhand rfingers
  end

#!OML:ASF G:\Work\Work\Patient Classification 1\Elijah\terrain1\Elijah.ASF
:FULLY-SPECIFIED
:DEGREES
738
root 7.82894 21.7444 3.77087 183.202 5.30774 178.327
lowerback 4.63177 -0.255356 -0.922255
upperback 2.00208 -0.242187 2.15057
thorax -0.525658 -0.0834263 2.73892
lowerneck -17.9292 0.105484 7.47898
upperneck 37.7795 1.99506 -2.32904
head 16.7675 2.73069 -1.63442
rclavicle -7.35503e-015 3.18055e-015
rhumerus -38.6511 7.58998 -86.4577
rradius 48.3688
rwrist -9.26087
rhand -15.8668 22.5832
rfingers 7.12502
rthumb 10.3286 -7.1432
lclavicle -7.35503e-015 3.18055e-015
lhumerus -41.6005 2.51804 85.5612
lradius 40.6003
lwrist 4.78922
lhand -17.767 25.7051
lfingers 7.12502
lthumb 8.49522 55.5142
rfemur -22.1895 0.129009 29.9395
rtibia 35.3492
rfoot -19.7453 -14.2234
rtoes 3.72099
lfemur -40.9456 -1.20194 -19.0439
ltibia 92.9749
lfoot -1.81898 -17.5488
ltoes -13.0794
739
root 7.82799 21.7427 3.69161 183.044 6.28732 178.722
lowerback 4.73319 -0.0939554 -0.461485
upperback 2.03875 -0.000462421 2.18174
thorax -0.558481 0.0424625 2.49947
lowerneck -17.4996 0.418936 7.8003
upperneck 37.8394 2.61251 -2.62667
head 16.7475 3.01236 -1.7034
rclavicle -9.34288e-015 -1.66979e-014
rhumerus -38.7969 7.94565 -86.6576
rradius 49.3318
rwrist -9.47723
rhand -15.78 22.7611
rfingers 7.12502
rthumb 10.4124 -6.96107
lclavicle -9.34288e-015 -1.66979e-014
lhumerus -41.6153 2.78043 85.3706
lradius 41.0196
lwrist 5.16245
lhand -17.7788 26.129
lfingers 7.12502
lthumb 8.48376 55.9386
rfemur -21.4433 0.271765 30.3641
rtibia 35.0194
rfoot -19.8332 -13.549
rtoes 3.57504
lfemur -41.8365 -1.5286 -18.4502
ltibia 93.363
lfoot -1.9916 -17.265
ltoes -14.1623
740
root 7.8255 21.7413 3.60999 182.931 7.25855 178.982
lowerback 4.64651 0.0934794 -0.0110411
upperback 2.1324 0.269604 2.1198
thorax -0.425061 0.180552 2.16852
lowerneck -16.6852 0.445142 7.66099
upperneck 37.0183 2.65323 -2.70879
head 16.1206 2.94505 -1.72262
rclavicle -9.83984e-015 4.77083e-014
rhumerus -38.8995 8.14844 -86.8308
rradius 50.2711
rwrist -9.74552
rhand -15.6766 22.9063
rfingers 7.12502
rthumb 10.5122 -6.81087
lclavicle -9.83984e-015 4.77083e-014
lhumerus -41.6235 2.85535 85.18
lradius 41.4401
lwrist 5.4466
lhand -17.7663 26.1408
lfingers 7.12502
lthumb 8.49583 55.9499
rfemur -20.7774 0.428932 30.6124
rtibia 34.7251
rfoot -19.9308 -12.9651
rtoes 3.50271
lfemur -42.7222 -1.8396 -18.0862
ltibia 93.6952
lfoot -2.52041 -17.0385
ltoes -16.2829
741
root 7.82428 21.7406 3.52824 182.821 8.0573 179.215
lowerback 4.62582 0.200597 0.447532
upperback 2.1901 0.432393 2.05096
thorax -0.357208 0.265822 1.83207
lowerneck -16.7772 1.06773 8.15836
upperneck 37.0566 3.52618 -2.91271
head 16.2496 3.34444 -1.7364
rclavicle -1.21259e-014 1.27222e-014
rhumerus -39.0015 8.43699 -87.0537
rradius 51.2839
rwrist -10.0818
rhand -15.4483 22.8659
rfingers 7.12502
rthumb 10.7323 -6.83999
lclavicle -1.21259e-014 1.27222e-014
lhumerus -41.5784 2.92487 84.962
lradius 41.7783
lwrist 5.89135
lhand -17.9178 26.0657
lfingers 7.12502
lthumb 8.34965 55.8807
rfemur -20.1533 0.439965 30.8371
rtibia 34.476
rfoot -20.0358 -12.4176
rtoes 2.8849
lfemur -43.6736 -2.2601 -17.7625
ltibia 94.0542
lfoot -2.92236 -16.8632
ltoes -16.9984
742
root 7.82549 21.7403 3.45598 182.726 8.87616 179.452
lowerback 4.87154 0.310716 0.813649
upperback 2.16859 0.600821 1.99576
thorax -0.517142 0.353309 1.55952
lowerneck -15.5984 1.10836 8.318
upperneck 36.6168 3.78438 -3.19095
head 15.7703 3.44879 -1.84947
rclavicle -1.44119e-014 3.18055e-015
rhumerus -38.9048 8.74404 -87.3269
rradius 51.9497
rwrist -10.4398
rhand -15.236 22.7738
rfingers 7.12502
rthumb 10.9372 -6.92137
lclavicle -1.44119e-014 3.18055e-015
lhumerus -41.4198 3.02698 84.7249
lradius 42.0525
lwrist 6.61108
lhand -17.6715 26.7423
lfingers 7.12502
lthumb 8.58739 56.5476
rfemur -19.6043 0.439093 31.0938
rtibia 34.3013
rfoot -20.1414 -11.9214
rtoes 1.79583
lfemur -44.8414 -2.60261 -17.3685
ltibia 94.455
lfoot -2.63981 -16.8386
ltoes -16.0589
743
root 7.8274 21.7389 3.3806 182.603 9.86882 179.559
lowerback 5.20488 0.428269 0.890977
upperback 2.05408 0.768525 2.01891
thorax -0.823378 0.436601 1.52712
lowerneck -16.7445 0.891174 8.17427
upperneck 37.1163 3.37136 -3.29364
head 16.2656 3.22707 -1.93837
rclavicle -2.98177e-015 4.29375e-014
rhumerus -38.8365 9.19006 -87.5022
rradius 52.1968
rwrist -10.6611
rhand -15.2421 22.9547
rfingers 7.12502
rthumb 10.9312 -6.74071
lclavicle -2.98177e-015 4.29375e-014
lhumerus -41.4909 3.38636 84.5975
lradius 42.3119
lwrist 7.33464
lhand -17.3025 27.3829
lfingers 7.12502
lthumb 8.94347 57.1734
rfemur -19.0569 0.443778 31.1955
rtibia 34.214
rfoot -20.2768 -11.2453
rtoes 0.993388
lfemur -45.8165 -2.78875 -17.12
ltibia 94.7882
lfoot -2.21606 -17.0758
ltoes -14.9911
